<?xml version="1.0" encoding="UTF-8"?>
<svg width="18px" height="19px" viewBox="0 0 18 19" version="1.1" xmlns="http://www.w3.org/2000/svg" xmlns:xlink="http://www.w3.org/1999/xlink">
    <!-- Generator: Sketch 55 (78076) - https://sketchapp.com -->
    <title>Logo</title>
    <desc>Created with Sketch.</desc>
    <g id="Logo" stroke="none" stroke-width="1" fill="none" fill-rule="evenodd">
        <g id="Group-2">
            <g id="Group" transform="translate(6.000000, 0.000000)">
                <path d="M3.18792884,4.2812966 C3.75263759,2.65227133 4.40260385,1.49615876 5.13782762,0.81295888 C5.87305139,0.129759003 6.78345578,-0.122826777 7.8690408,0.0552015396 L11.0010151,1.52378024 L8.94259495,2.50009007 L9.31759599,5.11096992 L10.2756552,5.97323325 L8.02775498,14.6091876 L4.80225658,14.6091876 L-1.86517468e-14,18.0552015 L3.18792884,4.2812966 Z" id="Rectangle" fill="#F05239"></path>
                <polygon id="Rectangle-Copy-6" fill="#F79433" points="3.18670337 4.32611931 10.2756552 5.97323325 9.00896994 10.5778474"></polygon>
                <path d="M3.18670337,4.32611931 C3.62694321,2.66721223 4.21467501,1.49615876 4.94989878,0.81295888 C5.68512255,0.129759003 6.65816989,-0.122826777 7.8690408,0.0552015396 L8.38357233,0.727686481 L11.0010151,1.52378024 L8.94259495,2.50009007 L9.31759599,5.11096992 L10.2756552,5.97323325 L3.18670337,4.32611931 Z" id="Rectangle-Copy-5" fill="#2E2F30"></path>
                <polygon id="Rectangle-Copy-4" fill="#2E2F30" points="3.18670337 4.32611931 8.02775498 14.6091876 4.80225658 14.6091876 1.42108547e-14 18.0552015"></polygon>
            </g>
            <polygon id="Rectangle" fill="#F79433" points="0 4 9.18670337 4.32611931 14.027755 14.6091876"></polygon>
            <polygon id="Rectangle-Copy-7" fill="#F05239" points="2.21861267 4.09863281 9.18670337 4.32611931 14.027755 14.6091876"></polygon>
            <polygon id="Rectangle-Copy-8" fill="#213875" points="4.27904909 4.17045752 9.18670337 4.32611931 14.027755 14.6091876"></polygon>
        </g>
    </g>
</svg>